<?xml version="1.0" encoding="UTF-8"?>
<svg version="1.1" xmlns="http://www.w3.org/2000/svg" width="1024" height="1024">
<path d="M0 0 C124.89772727 0 124.89772727 0 138.3359375 2.390625 C143.72625892 3.28709637 149.14001551 3.95465856 154.5625 4.625 C155.60398193 4.76019043 156.64546387 4.89538086 157.71850586 5.03466797 C164.84551972 5.9075011 171.8227673 6.15858633 179 6 C179 6.66 179 7.32 179 8 C182.96276181 8.86636211 186.92798854 9.72030891 190.89575195 10.56347656 C192.24151241 10.85119864 193.58658924 11.14213981 194.9309082 11.43652344 C202.40069432 13.06993148 209.34268124 14.40345917 217 14 C217 14.66 217 15.32 217 16 C217.95438965 16.25579834 218.9087793 16.51159668 219.89208984 16.77514648 C238.96197569 21.90292996 257.74900509 27.3322632 276.32128906 34.07763672 C279.87789799 35.30228752 283.48266711 36.31582616 287.11474609 37.29125977 C289 38 289 38 290 40 C291.70016563 40.731032 291.70016563 40.731032 293.796875 41.3046875 C300.88847912 43.53660566 307.64132554 46.57905087 314.46875 49.50390625 C315.49484375 49.93832031 316.5209375 50.37273437 317.578125 50.8203125 C318.50012695 51.21492676 319.42212891 51.60954102 320.37207031 52.01611328 C322.97656473 53.07274279 322.97656473 53.07274279 325.73730469 53.53857422 C328.42264025 54.08618797 329.15132118 55.06729033 331 57 C331.99 57 332.98 57 334 57 C334 57.66 334 58.32 334 59 C335.2998584 59.400979 335.2998584 59.400979 336.62597656 59.81005859 C339.94466527 60.9804847 342.88091338 62.38664116 345.984375 64.0390625 C347.08394531 64.61914062 348.18351562 65.19921875 349.31640625 65.796875 C350.44949219 66.40015625 351.58257813 67.0034375 352.75 67.625 C355.01365388 68.82923338 357.27918424 70.0299483 359.546875 71.2265625 C360.54557617 71.75846191 361.54427734 72.29036133 362.57324219 72.83837891 C364.85225507 74.1439191 364.85225507 74.1439191 367 74 C367 74.66 367 75.32 367 76 C367.67804688 76.24621094 368.35609375 76.49242187 369.0546875 76.74609375 C372.57979955 78.24683774 375.82968421 80.12346681 379.125 82.0625 C383.89033897 84.88515439 383.89033897 84.88515439 389 87 C390.66865359 88.33084588 392.33494291 89.66465718 394 91 C396.383316 92.50656646 398.77423172 93.98111961 401.1875 95.4375 C409.78815308 100.71770493 417.91498965 106.57595411 426.03613281 112.55908203 C428.56938655 114.41776721 431.13001853 116.23735373 433.6875 118.0625 C438.96906275 121.88793096 444.02219296 125.99184931 449.05151367 130.14086914 C452.12961184 133.00548691 452.12961184 133.00548691 456 134 C457.15937954 135.39807533 458.31525861 136.79920409 459.453125 138.21484375 C463.2885807 142.6411146 467.69858764 146.43753093 472.875 149.1875 C476 151 476 151 476.93359375 152.87890625 C478.2649631 155.52701453 479.91564981 156.85744322 482.1875 158.75 C485.82820164 161.89292686 488.96686231 165.14359607 492.0625 168.8125 C494.38735033 171.43733102 496.86802854 173.86123902 499.375 176.3125 C503.79972857 180.65868756 507.80062635 185.22764951 511.63671875 190.1015625 C513.62273259 192.53730179 515.66784678 194.85651958 517.77734375 197.18359375 C522.12558521 202.04544688 526.01318967 207.1859051 529.875 212.4375 C531.18350741 214.20805818 532.49333888 215.97763885 533.8046875 217.74609375 C534.37171387 218.51622803 534.93874023 219.2863623 535.52294922 220.07983398 C537.00192093 222.08814705 537.00192093 222.08814705 539 224 C540.08727368 225.62740898 541.14420849 227.2751902 542.18359375 228.93359375 C542.8060498 229.92214355 543.42850586 230.91069336 544.06982422 231.92919922 C545.02526123 233.44924561 545.02526123 233.44924561 546 235 C547.17676942 236.84608318 548.35511782 238.69116095 549.53515625 240.53515625 C550.7109375 242.37760417 551.88671875 244.22005208 553.0625 246.0625 C553.64837891 246.97837891 554.23425781 247.89425781 554.83789062 248.83789062 C558.66070183 254.83304294 562.37474255 260.88336159 566 267 C561.72840685 267.63053908 557.45317163 268.19591663 553.16796875 268.7265625 C524.69806228 272.33693659 496.97988758 278.24055624 469.46313477 286.37670898 C467 287 467 287 464 287 C463.67 287.66 463.34 288.32 463 289 C461.10801498 289.51368979 459.21209998 290.01617053 457.30126953 290.45458984 C429.37193449 297.07395484 402.31882894 310.8104593 377 324 C377 324.66 377 325.32 377 326 C376.28070312 326.10650879 375.56140625 326.21301758 374.8203125 326.32275391 C371.73253647 327.06422644 369.59046019 328.20007538 366.875 329.8359375 C365.92109375 330.40570313 364.9671875 330.97546875 363.984375 331.5625 C362.99953125 332.160625 362.0146875 332.75875 361 333.375 C360.01515625 333.96539062 359.0303125 334.55578125 358.015625 335.1640625 C355.33977646 336.76957162 352.6695405 338.384034 350 340 C349.11054687 340.49709473 348.22109375 340.99418945 347.3046875 341.50634766 C344.74962173 342.94596714 344.74962173 342.94596714 343 346 C342.34 346 341.68 346 341 346 C339.35629148 346.94508081 339.35629148 346.94508081 337.578125 348.23828125 C336.88944336 348.72304932 336.20076172 349.20781738 335.49121094 349.70727539 C334.75161133 350.23699951 334.01201172 350.76672363 333.25 351.3125 C332.1057959 352.12738892 332.1057959 352.12738892 330.93847656 352.95874023 C318.55948063 361.83825949 305.79302744 371.20697256 295 382 C294.01 382.845625 293.02 383.69125 292 384.5625 C283.42804842 391.89164519 275.26919058 399.57108931 267.3125 407.5625 C266.41466797 408.45646484 265.51683594 409.35042969 264.59179688 410.27148438 C259.51729966 415.35341675 254.66644739 420.54343576 250 426 C248.96699194 427.16856918 247.9318691 428.33527267 246.89453125 429.5 C235.6587484 442.21127978 225.80489953 455.63073734 216.3125 469.6875 C215.60440186 470.72769287 214.89630371 471.76788574 214.16674805 472.83959961 C213.18121948 474.31698608 213.18121948 474.31698608 212.17578125 475.82421875 C211.58708252 476.70166748 210.99838379 477.57911621 210.3918457 478.4831543 C208.97810743 481.03958788 208.39864308 483.12234571 208 486 C207.34 486 206.68 486 206 486 C192.98944637 509.35429149 182.45914321 532.62257038 174 558 C174.66 558.33 175.32 558.66 176 559 C175.01 559 174.02 559 173 559 C173 559.99 173 560.98 173 562 C168.94352134 562.97512891 165.18524141 563.1021813 161.01953125 563.0625 C160.36546799 563.05871338 159.71140472 563.05492676 159.03752136 563.05102539 C156.96244502 563.03887694 154.88751224 563.02023697 152.8125 563 C150.06901438 562.97344708 147.32559662 562.95345355 144.58203125 562.9375 C143.36749268 562.92589844 142.1529541 562.91429687 140.90161133 562.90234375 C138.06032448 562.79613991 138.06032448 562.79613991 136 564 C136 563.34 136 562.68 136 562 C133.36 562 130.72 562 128 562 C127.67 562.66 127.34 563.32 127 564 C127 563.34 127 562.68 127 562 C124.69 562 122.38 562 120 562 C119.67 562.66 119.34 563.32 119 564 C118.67 563.67 118.34 563.34 118 563 C115.98035801 562.92755947 113.95832876 562.91622812 111.9375 562.9375 C110.28041016 562.95103516 110.28041016 562.95103516 108.58984375 562.96484375 C107.73519531 562.97644531 106.88054687 562.98804688 106 563 C106.99 563.66 107.98 564.32 109 565 C107.35 564.67 105.7 564.34 104 564 C104 563.34 104 562.68 104 562 C100.41604315 562.11004161 96.83312083 562.24063297 93.25 562.375 C92.23421875 562.4059375 91.2184375 562.436875 90.171875 562.46875 C88.70234375 562.52675781 88.70234375 562.52675781 87.203125 562.5859375 C86.30239258 562.6173584 85.40166016 562.6487793 84.47363281 562.68115234 C81.91177125 563.01137256 80.21872563 563.70951673 78 565 C78 564.34 78 563.68 78 563 C77.14079956 563.00222061 76.28159912 563.00444122 75.3963623 563.00672913 C67.27554426 563.02681588 59.15473463 563.04201678 51.0338974 563.05181217 C46.85950149 563.05701745 42.68512622 563.06407209 38.51074219 563.07543945 C34.47774555 563.08635233 30.44476869 563.09229456 26.41175842 563.09487724 C24.87768747 563.09671641 23.34361753 563.1003077 21.80955505 563.10573006 C19.65100821 563.11305218 17.49254176 563.11398627 15.33398438 563.11352539 C14.10820679 563.115746 12.8824292 563.11796661 11.61950684 563.12025452 C7.73052442 562.99104694 3.86108045 562.48263506 0 562 C0 376.54 0 191.08 0 0 Z " fill="#182948" transform="translate(200,90)"/>
<path d="M0 0 C17.82 0 35.64 0 54 0 C59.63028018 12.38661639 59.63028018 12.38661639 61.53515625 18.328125 C61.74055527 18.96506287 61.94595428 19.60200073 62.15757751 20.25823975 C62.58485147 21.58797932 63.00897523 22.91873527 63.42993164 24.25048828 C64.0580723 26.23600429 64.69711551 28.21774872 65.33789062 30.19921875 C73 54.06051009 73 54.06051009 73 61 C73.66 61.33 74.32 61.66 75 62 C75.6328125 64.765625 75.6328125 64.765625 76.125 68.25 C76.29257812 69.38953125 76.46015625 70.5290625 76.6328125 71.703125 C76.94553304 74.51095622 77.07420706 77.18013184 77 80 C77.99 80.33 78.98 80.66 80 81 C79.34 81 78.68 81 78 81 C78.64223504 84.60481752 79.28940479 88.20873183 79.9375 91.8125 C80.11990234 92.83666016 80.30230469 93.86082031 80.49023438 94.91601562 C80.66748047 95.89892578 80.84472656 96.88183594 81.02734375 97.89453125 C81.27085571 99.25348511 81.27085571 99.25348511 81.51928711 100.63989258 C81.97824776 103.13561463 81.97824776 103.13561463 83 106 C83 108.14444475 82.99634437 110.28898742 82.96921974 112.43326062 C83.0001344 115.0112078 83.21768104 117.5051117 83.49248409 120.06783009 C84.05651102 126.02882189 84.13679962 131.93059184 84.12025452 137.91471863 C84.12153615 139.6377833 84.12153615 139.6377833 84.12284368 141.39565736 C84.12448138 145.21715694 84.11900528 149.03861193 84.11352539 152.86010742 C84.112685 155.61046374 84.11335807 158.36081921 84.1139679 161.11117554 C84.11449044 167.01835269 84.11137189 172.92551874 84.10573006 178.8326931 C84.09757841 187.37331382 84.09499609 195.91392921 84.09374207 204.4545534 C84.09155729 218.31353669 84.08491281 232.17251406 84.07543945 246.03149414 C84.06625045 259.48852509 84.0591769 272.94555443 84.05493164 286.40258789 C84.05453756 287.6483106 84.05453756 287.6483106 84.05413551 288.91919943 C84.0528304 293.08577832 84.05156671 297.25235722 84.05032361 301.41893613 C84.03996889 335.94596167 84.02236624 370.4729802 84 405 C84.99 405.33 85.98 405.66 87 406 C77.23481788 407.83995506 67.71159715 408.28539154 57.80955505 408.25396729 C56.20901173 408.25627633 54.60846946 408.25945582 53.00792938 408.26342177 C48.64398659 408.27171665 44.28013205 408.26766892 39.91618907 408.26144934 C35.19713633 408.25690431 30.47809824 408.26391851 25.75904846 408.26940918 C16.53046925 408.27828115 7.30192266 408.27639152 -1.9266578 408.2705839 C-9.42440949 408.26606122 -16.92215205 408.26545712 -24.41990471 408.26763153 C-25.48827789 408.267938 -26.55665107 408.26824446 -27.65739919 408.26856022 C-29.82787832 408.26919968 -31.99835746 408.2698481 -34.16883659 408.2705054 C-54.49610964 408.27620161 -74.82336461 408.26966064 -95.1506347 408.25890467 C-112.59888593 408.24995824 -130.04711057 408.25153155 -147.49536133 408.26074219 C-167.76545857 408.27143744 -188.03554002 408.27566452 -208.30563968 408.26951766 C-210.46523885 408.26888056 -212.62483801 408.26825182 -214.78443718 408.26763153 C-216.37826049 408.2671687 -216.37826049 408.2671687 -218.00428225 408.26669653 C-225.49912601 408.26496821 -232.99395975 408.26788739 -240.48880196 408.27259064 C-249.61294926 408.27819067 -258.73706213 408.27670107 -267.86120547 408.26602915 C-272.51789838 408.26076238 -277.17453382 408.25873293 -281.83122635 408.26532745 C-286.09001402 408.27126753 -290.3486907 408.26804412 -294.60746824 408.25737235 C-296.15155404 408.2551302 -297.69564913 408.25629276 -299.23972899 408.26112393 C-301.33189322 408.26717017 -303.42367284 408.26100372 -305.51581669 408.25168228 C-307.26183252 408.25119522 -307.26183252 408.25119522 -309.0431214 408.25069833 C-311.91367737 408.00731885 -313.57349053 407.49763743 -316 406 C-315.67 405.34 -315.34 404.68 -315 404 C-314.9103882 402.6083613 -314.88242025 401.21249291 -314.88647461 399.81797791 C-314.8865451 398.94160172 -314.8866156 398.06522552 -314.88668823 397.16229248 C-314.89185455 396.19857727 -314.89702087 395.23486206 -314.90234375 394.24194336 C-314.90380402 393.22888626 -314.90526428 392.21582916 -314.9067688 391.17207336 C-314.91058097 388.96762037 -314.91670397 386.76317047 -314.92483521 384.55872917 C-314.93755063 381.07597619 -314.94410185 377.59326109 -314.94897461 374.11048889 C-314.9604269 366.71947564 -314.97967438 359.32849348 -315 351.9375 C-315.0235407 343.37297861 -315.04394955 334.80847494 -315.05593872 326.24392891 C-315.06245319 322.80207594 -315.07496097 319.36027675 -315.08764648 315.91844177 C-315.0912769 313.82184904 -315.09462889 311.7252558 -315.09765625 309.62866211 C-315.10282257 308.66292267 -315.10798889 307.69718323 -315.11331177 306.70217896 C-315.11338226 305.82862259 -315.11345276 304.95506622 -315.11352539 304.05503845 C-315.115746 303.29162612 -315.11796661 302.52821379 -315.12025452 301.74166775 C-315 300 -315 300 -314 299 C-313.81916471 297.43068223 -313.69960534 295.85423879 -313.60546875 294.27734375 C-310.94558871 253.92446285 -300.42862041 219.38983251 -281 184 C-280.6695166 183.39381836 -280.3390332 182.78763672 -279.99853516 182.16308594 C-270.96178785 165.93325538 -259.21707862 150.93385764 -247 137 C-245.76911677 135.56396956 -244.5396012 134.12676356 -243.3125 132.6875 C-242.549375 131.800625 -241.78625 130.91375 -241 130 C-241.33 129.34 -241.66 128.68 -242 128 C-240.68 128 -239.36 128 -238 128 C-237.7743335 127.44981201 -237.54866699 126.89962402 -237.31616211 126.33276367 C-235.59714686 123.28598373 -233.41241621 121.15281754 -230.94140625 118.67578125 C-230.43761948 118.17008102 -229.9338327 117.6643808 -229.41477966 117.14335632 C-228.34546588 116.07268344 -227.27362978 115.00452456 -226.19946289 113.9387207 C-224.59228282 112.34208737 -222.99585142 110.73528653 -221.40039062 109.12695312 C-215.70439525 103.42344397 -209.88059429 98.09834218 -203.56542969 93.07202148 C-201.11642152 91.09403021 -198.77900826 89.03807489 -196.44921875 86.921875 C-191.78528207 82.73232493 -186.84847104 78.9783722 -181.8125 75.25 C-180.94947266 74.60417969 -180.08644531 73.95835937 -179.19726562 73.29296875 C-175.68388828 70.67473651 -172.17620691 68.07561928 -168.51171875 65.671875 C-165.96316831 64.09438183 -165.96316831 64.09438183 -164 62 C-162.67261835 61.32156049 -161.33796262 60.65732659 -160 60 C-158.03276768 58.80620945 -156.07552297 57.59590091 -154.125 56.375 C-143.93090004 50.0518207 -133.50455105 44.18794142 -122.88525391 38.61328125 C-120.15759204 37.1774365 -117.5683814 35.71225427 -115 34 C-113.67263793 33.64363106 -112.3386795 33.3111689 -111 33 C-109.71457206 32.48606115 -108.44097355 31.94172114 -107.1796875 31.37109375 C-106.47972656 31.05849609 -105.77976562 30.74589844 -105.05859375 30.42382812 C-103.59491049 29.76268318 -102.13137028 29.10122143 -100.66796875 28.43945312 C-95.2031897 26 -95.2031897 26 -93 26 C-92.67 25.34 -92.34 24.68 -92 24 C-90.171875 23.30004883 -90.171875 23.30004883 -87.75 22.64453125 C-83.73245654 21.50836426 -79.76961306 20.28150388 -75.8125 18.94921875 C-52.37797275 11.1382829 -27.52722803 3.69324075 -2.6875 2.30859375 C-2.130625 2.20675781 -1.57375 2.10492188 -1 2 C-0.67 1.34 -0.34 0.68 0 0 Z " fill="#172542" transform="translate(741,416)"/>
<path d="M0 0 C0.33 0.66 0.66 1.32 1 2 C1.66 2 2.32 2 3 2 C3 38.3 3 74.6 3 112 C3.66 112.33 4.32 112.66 5 113 C1.56857936 114.71571032 -2.36204273 114.39346723 -6.14453125 114.55419922 C-7.11421341 114.59630964 -8.08389557 114.63842007 -9.08296204 114.68180656 C-22.21528038 115.19294791 -35.35548182 115.14627465 -48.49543381 115.1343255 C-52.2294598 115.13174821 -55.96348365 115.1341533 -59.69750977 115.13571167 C-65.94352673 115.13751439 -72.18953174 115.13517373 -78.43554688 115.13037109 C-85.64201647 115.12489376 -92.84845792 115.12672371 -100.05492687 115.1321975 C-106.28386519 115.13673761 -112.51279506 115.13737592 -118.7417345 115.13475883 C-122.44496435 115.1332059 -126.14818094 115.13297599 -129.85140991 115.13629532 C-133.96215488 115.13972534 -138.07285113 115.13496977 -142.18359375 115.12939453 C-144.00694244 115.13243088 -144.00694244 115.13243088 -145.86712646 115.13552856 C-146.98790588 115.13270874 -148.1086853 115.12988892 -149.26342773 115.12698364 C-150.71663673 115.1264181 -150.71663673 115.1264181 -152.19920349 115.12584114 C-155 115 -155 115 -161 114 C-161 77.04 -161 40.08 -161 2 C-62.85458323 0.95171784 -62.85458323 0.95171784 -40.19140625 0.96875 C-39.47714666 0.96925858 -38.76288708 0.96976715 -38.02698326 0.97029114 C-30.99991974 0.97694107 -23.97301692 1.00024218 -16.94604492 1.03710938 C-15.83805038 1.04133911 -14.73005585 1.04556885 -13.58848572 1.04992676 C-11.56881942 1.05802591 -9.54916338 1.07031299 -7.52955627 1.08776855 C-5.3528566 1.09603756 -3.17604255 1.05411695 -1 1 C-0.67 0.67 -0.34 0.34 0 0 Z " fill="#162440" transform="translate(361,709)"/>
<path d="M0 0 C34.65 0 69.3 0 105 0 C105.99 0.99 105.99 0.99 107 2 C72.68 2 38.36 2 3 2 C3 186.14 3 370.28 3 560 C58.44 560 113.88 560 171 560 C171.33 559.34 171.66 558.68 172 558 C172 559.32 172 560.64 172 562 C168.34594958 563.15474813 164.93106533 563.09867431 161.1171875 563.0625 C160.46170929 563.05871338 159.80623108 563.05492676 159.13088989 563.05102539 C157.04552516 563.03884935 154.96030137 563.02021294 152.875 563 C150.12239969 562.97345368 147.36986728 562.95344847 144.6171875 562.9375 C143.39628418 562.92589844 142.17538086 562.91429687 140.91748047 562.90234375 C138.06268649 562.79488965 138.06268649 562.79488965 136 564 C136 563.34 136 562.68 136 562 C133.36 562 130.72 562 128 562 C127.67 562.66 127.34 563.32 127 564 C127 563.34 127 562.68 127 562 C124.69 562 122.38 562 120 562 C119.67 562.66 119.34 563.32 119 564 C118.67 563.67 118.34 563.34 118 563 C115.98035801 562.92755947 113.95832876 562.91622812 111.9375 562.9375 C110.28041016 562.95103516 110.28041016 562.95103516 108.58984375 562.96484375 C107.73519531 562.97644531 106.88054687 562.98804688 106 563 C106.99 563.66 107.98 564.32 109 565 C107.35 564.67 105.7 564.34 104 564 C104 563.34 104 562.68 104 562 C100.41604315 562.11004161 96.83312083 562.24063297 93.25 562.375 C92.23421875 562.4059375 91.2184375 562.436875 90.171875 562.46875 C88.70234375 562.52675781 88.70234375 562.52675781 87.203125 562.5859375 C86.30239258 562.6173584 85.40166016 562.6487793 84.47363281 562.68115234 C81.91177125 563.01137256 80.21872563 563.70951673 78 565 C78 564.34 78 563.68 78 563 C77.14079956 563.00222061 76.28159912 563.00444122 75.3963623 563.00672913 C67.27554426 563.02681588 59.15473463 563.04201678 51.0338974 563.05181217 C46.85950149 563.05701745 42.68512622 563.06407209 38.51074219 563.07543945 C34.47774555 563.08635233 30.44476869 563.09229456 26.41175842 563.09487724 C24.87768747 563.09671641 23.34361753 563.1003077 21.80955505 563.10573006 C19.65100821 563.11305218 17.49254176 563.11398627 15.33398438 563.11352539 C14.10820679 563.115746 12.8824292 563.11796661 11.61950684 563.12025452 C7.73052442 562.99104694 3.86108045 562.48263506 0 562 C0 376.54 0 191.08 0 0 Z " fill="#10182C" transform="translate(200,90)"/>
<path d="M0 0 C0.66 0 1.32 0 2 0 C2 92.07 2 184.14 2 279 C2.99 279.33 3.98 279.66 5 280 C-4.77240979 281.84290833 -14.30125281 282.28325079 -24.21063232 282.24723816 C-25.81331336 282.24882963 -27.41599372 282.25129657 -29.01867223 282.25455457 C-33.38841082 282.26092247 -37.7580557 282.25493569 -42.12778807 282.24679029 C-46.85291543 282.24017802 -51.57803291 282.24516923 -56.30316162 282.24867249 C-65.54276887 282.25369932 -74.78234017 282.24809304 -84.02194294 282.23882218 C-94.77908599 282.22841759 -105.53622135 282.22850887 -116.29336849 282.22899476 C-135.47651105 282.22949471 -154.6596369 282.2203496 -173.84277344 282.20581055 C-192.46907861 282.19170081 -211.09536909 282.18464083 -229.72167969 282.18530273 C-231.44517891 282.18536267 -231.44517891 282.18536267 -233.20349631 282.18542381 C-234.35049109 282.18546417 -235.49748588 282.18550452 -236.67923808 282.1855461 C-257.88289254 282.18623497 -279.08654075 282.18035458 -300.29019319 282.17139288 C-307.7954597 282.16837192 -315.30072507 282.16731281 -322.80599213 282.16686058 C-331.93790296 282.16618016 -341.06980325 282.16173902 -350.2017096 282.15252777 C-354.86409102 282.14789598 -359.5264589 282.14486938 -364.18884277 282.14612198 C-368.44929559 282.14721117 -372.70971838 282.14373482 -376.97016492 282.13647345 C-378.51823506 282.13464942 -380.06630827 282.13454012 -381.61437854 282.13624074 C-383.70460887 282.13828418 -385.79473866 282.13428067 -387.88496017 282.12863445 C-389.05010989 282.12793003 -390.2152596 282.1272256 -391.41571689 282.12649983 C-394 282 -394 282 -395 281 C-395.09536242 277.83387337 -395.12550636 274.68959372 -395.11352539 271.52319336 C-395.11374443 270.03067802 -395.11374443 270.03067802 -395.1139679 268.50801086 C-395.11326831 265.20193338 -395.10547379 261.89591146 -395.09765625 258.58984375 C-395.09579223 256.30440807 -395.09436825 254.01897199 -395.09336853 251.73353577 C-395.08954207 245.70501613 -395.0797107 239.67652041 -395.06866455 233.64801025 C-395.05845317 227.50167159 -395.0538715 221.35532907 -395.04882812 215.20898438 C-395.03808854 203.13931238 -395.0210106 191.06965818 -395 179 C-394.67 179 -394.34 179 -394 179 C-394 212 -394 245 -394 279 C-263.98 279 -133.96 279 0 279 C0 186.93 0 94.86 0 0 Z " fill="#0C1222" transform="translate(823,542)"/>
<path d="M0 0 C0.33 0.66 0.66 1.32 1 2 C1.66 2 2.32 2 3 2 C3 38.3 3 74.6 3 112 C3.66 112.33 4.32 112.66 5 113 C1.56857936 114.71571032 -2.36204273 114.39346723 -6.14453125 114.55419922 C-7.11421341 114.59630964 -8.08389557 114.63842007 -9.08296204 114.68180656 C-22.21528038 115.19294791 -35.35548182 115.14627465 -48.49543381 115.1343255 C-52.2294598 115.13174821 -55.96348365 115.1341533 -59.69750977 115.13571167 C-65.94352673 115.13751439 -72.18953174 115.13517373 -78.43554688 115.13037109 C-85.64201647 115.12489376 -92.84845792 115.12672371 -100.05492687 115.1321975 C-106.28386519 115.13673761 -112.51279506 115.13737592 -118.7417345 115.13475883 C-122.44496435 115.1332059 -126.14818094 115.13297599 -129.85140991 115.13629532 C-133.96215488 115.13972534 -138.07285113 115.13496977 -142.18359375 115.12939453 C-144.00694244 115.13243088 -144.00694244 115.13243088 -145.86712646 115.13552856 C-146.98790588 115.13270874 -148.1086853 115.12988892 -149.26342773 115.12698364 C-150.71663673 115.1264181 -150.71663673 115.1264181 -152.19920349 115.12584114 C-155 115 -155 115 -161 114 C-161 77.04 -161 40.08 -161 2 C-130.64 2 -100.28 2 -69 2 C-69 2.33 -69 2.66 -69 3 C-98.37 3 -127.74 3 -158 3 C-158 38.97 -158 74.94 -158 112 C-105.53 112 -53.06 112 1 112 C1 76.03 1 40.06 1 3 C-0.98 3 -2.96 3 -5 3 C-4.0409375 2.5359375 -4.0409375 2.5359375 -3.0625 2.0625 C-1.06389179 1.1654837 -1.06389179 1.1654837 0 0 Z " fill="#101628" transform="translate(361,709)"/>
<path d="M0 0 C8.689489 3.70054449 14.45789362 14.07089062 19.875 21.4375 C21.18350741 23.20805818 22.49333888 24.97763885 23.8046875 26.74609375 C24.37171387 27.51622803 24.93874023 28.2863623 25.52294922 29.07983398 C27.00192093 31.08814705 27.00192093 31.08814705 29 33 C30.08727368 34.62740898 31.14420849 36.2751902 32.18359375 37.93359375 C32.8060498 38.92214355 33.42850586 39.91069336 34.06982422 40.92919922 C34.70678223 41.94256348 35.34374023 42.95592773 36 44 C37.17676942 45.84608318 38.35511782 47.69116095 39.53515625 49.53515625 C40.7109375 51.37760417 41.88671875 53.22005208 43.0625 55.0625 C43.64837891 55.97837891 44.23425781 56.89425781 44.83789062 57.83789062 C48.66070183 63.83304294 52.37474255 69.88336159 56 76 C50.97703996 77.13016601 47.02125926 76.77916092 42 76 C42 75.67 42 75.34 42 75 C46.455 74.01 46.455 74.01 51 73 C35.77945134 48.70465686 20.01637887 25.07497263 1.6171875 3.046875 C0 1 0 1 0 0 Z " fill="#121B2F" transform="translate(710,281)"/>
<path d="M0 0 C1.12070892 0.02009628 2.24141785 0.04019257 3.39608765 0.06089783 C4.59005157 0.08793289 5.7840155 0.11496796 7.01416016 0.14282227 C8.24864899 0.16643326 9.48313782 0.19004425 10.7550354 0.21437073 C14.68788797 0.29078468 18.6205325 0.3749051 22.55322266 0.45922852 C25.22377432 0.51309572 27.8943566 0.56521167 30.56494141 0.61743164 C37.10282981 0.74636972 43.64056438 0.88163106 50.17822266 1.02172852 C48.17822266 3.02172852 48.17822266 3.02172852 45.69784546 3.26223755 C44.65415802 3.25779633 43.61047058 3.2533551 42.53515625 3.2487793 C41.35408295 3.24862823 40.17300964 3.24847717 38.95614624 3.24832153 C37.67591583 3.23799896 36.39568542 3.22767639 35.07666016 3.21704102 C33.11655502 3.21279617 33.11655502 3.21279617 31.11685181 3.20846558 C27.64140184 3.20082628 24.16611883 3.18117542 20.69073486 3.15905762 C17.14492044 3.13860547 13.59907906 3.12946522 10.05322266 3.11938477 C3.09482071 3.09792968 -3.86347031 3.06379024 -10.82177734 3.02172852 C-11.15177734 2.36172852 -11.48177734 1.70172852 -11.82177734 1.02172852 C-7.80970798 0.2628208 -4.07978882 -0.08307262 0 0 Z " fill="#081026" transform="translate(304.82177734375,709.978271484375)"/>
<path d="M0 0 C3.72841729 0.55702147 6.17375783 1.50742502 9.2578125 3.66015625 C10.04317383 4.20285156 10.82853516 4.74554688 11.63769531 5.3046875 C12.45850586 5.88476562 13.27931641 6.46484375 14.125 7.0625 C14.9715918 7.65160156 15.81818359 8.24070313 16.69042969 8.84765625 C22.09140794 12.61779951 27.45780253 16.43525491 32.75390625 20.3515625 C34.87026175 21.9047834 37.02211994 23.39139307 39.1875 24.875 C40.115625 25.57625 41.04375 26.2775 42 27 C42 27.66 42 28.32 42 29 C37.93202098 28.4229817 35.58161791 26.29152947 32.4375 23.75 C23.38041716 16.56665861 13.78842682 10.0667832 4.10107422 3.76464844 C2.71919967 2.86551952 1.3568295 1.93649548 0 1 C0 0.67 0 0.34 0 0 Z " fill="#111B31" transform="translate(600,187)"/>
<path d="M0 0 C8.17666414 -0.10053276 16.17836601 -0.00527539 24.32421875 0.77734375 C27.89920137 1.07482406 31.4149657 1.06894297 35 1 C35 2.32 35 3.64 35 5 C23.24428587 4.35676281 11.64574502 2.66681392 0 1 C0 0.67 0 0.34 0 0 Z " fill="#151E36" transform="translate(344,95)"/>
<path d="M0 0 C0 3.56667485 -0.8539343 4.72683448 -2.73828125 7.7109375 C-3.31126953 8.62617187 -3.88425781 9.54140625 -4.47460938 10.484375 C-5.08111328 11.43828125 -5.68761719 12.3921875 -6.3125 13.375 C-7.49625013 15.25771418 -8.67984874 17.14052365 -9.86328125 19.0234375 C-10.65665894 20.27519775 -10.65665894 20.27519775 -11.46606445 21.55224609 C-13.0100973 24.0161126 -14.51195288 26.50199767 -16 29 C-16.72265625 27.41796875 -16.72265625 27.41796875 -17 25 C-15.90751518 22.62258722 -14.79435337 20.52906187 -13.4375 18.3125 C-13.07052002 17.6947168 -12.70354004 17.07693359 -12.32543945 16.44042969 C-11.23311076 14.61647601 -10.12140374 12.80619536 -9 11 C-8.41734375 10.06027344 -7.8346875 9.12054687 -7.234375 8.15234375 C-3.47809829 2.31873219 -3.47809829 2.31873219 0 0 Z " fill="#121A2E" transform="translate(473,582)"/>
<path d="M0 0 C0.33 0.99 0.66 1.98 1 3 C0.10717773 4.75830078 0.10717773 4.75830078 -1.31640625 6.6953125 C-1.83090332 7.4076001 -2.34540039 8.1198877 -2.87548828 8.85375977 C-3.43220215 9.60326904 -3.98891602 10.35277832 -4.5625 11.125 C-5.67680644 12.65680684 -6.79009774 14.18935268 -7.90234375 15.72265625 C-8.43972168 16.45887207 -8.97709961 17.19508789 -9.53076172 17.95361328 C-11.78756102 21.09693196 -13.8665882 24.34674291 -15.9140625 27.62890625 C-16.27242188 28.08136719 -16.63078125 28.53382813 -17 29 C-17.66 29 -18.32 29 -19 29 C-17.67905298 25.37291805 -16.07650297 22.4237802 -13.84765625 19.27734375 C-13.23599609 18.40916016 -12.62433594 17.54097656 -11.99414062 16.64648438 C-11.35669922 15.75251953 -10.71925781 14.85855469 -10.0625 13.9375 C-9.42892578 13.03966797 -8.79535156 12.14183594 -8.14257812 11.21679688 C-5.47359143 7.44204702 -2.78747242 3.68842052 0 0 Z " fill="#121B2E" transform="translate(427,540)"/>
<path d="M0 0 C1 3 1 3 -0.0480957 5.48022461 C-0.58523193 6.44452393 -1.12236816 7.40882324 -1.67578125 8.40234375 C-2.25650391 9.45744141 -2.83722656 10.51253906 -3.43554688 11.59960938 C-4.05494141 12.70111328 -4.67433594 13.80261719 -5.3125 14.9375 C-6.5172068 17.11312639 -7.72164487 19.2889016 -8.92578125 21.46484375 C-9.73656128 22.91298462 -9.73656128 22.91298462 -10.5637207 24.39038086 C-11.76422182 26.57160752 -12.90755126 28.76326981 -14 31 C-14.66 31 -15.32 31 -16 31 C-14.39454714 25.44405078 -11.83294849 20.57641655 -9.125 15.5 C-8.69058594 14.67113281 -8.25617188 13.84226562 -7.80859375 12.98828125 C-5.42170435 8.47971238 -2.92027554 4.1834645 0 0 Z " fill="#0E1527" transform="translate(405,573)"/>
<path d="M0 0 C0.59312988 0.20753906 1.18625977 0.41507812 1.79736328 0.62890625 C-1.52990153 3.30322139 -4.86474702 5.96786641 -8.20263672 8.62890625 C-9.47107422 9.64597656 -9.47107422 9.64597656 -10.76513672 10.68359375 C-11.54888672 11.30492187 -12.33263672 11.92625 -13.14013672 12.56640625 C-13.85041016 13.13230469 -14.56068359 13.69820313 -15.29248047 14.28125 C-17.20263672 15.62890625 -17.20263672 15.62890625 -20.20263672 16.62890625 C-20.20263672 17.28890625 -20.20263672 17.94890625 -20.20263672 18.62890625 C-20.86263672 18.29890625 -21.52263672 17.96890625 -22.20263672 17.62890625 C-18.37522928 12.56321993 -13.99776185 8.59562216 -9.07763672 4.62890625 C-8.46774902 4.12383545 -7.85786133 3.61876465 -7.22949219 3.09838867 C-2.7184444 -0.45799551 -2.7184444 -0.45799551 0 0 Z " fill="#162037" transform="translate(560.20263671875,492.37109375)"/>
<path d="M0 0 C0.495 1.98 0.495 1.98 1 4 C-1.92645468 4.85779683 -4.37429068 5.0785678 -7.4140625 4.9140625 C-8.25356445 4.87079834 -9.09306641 4.82753418 -9.95800781 4.78295898 C-10.83811523 4.73083252 -11.71822266 4.67870605 -12.625 4.625 C-13.52057617 4.57609619 -14.41615234 4.52719238 -15.33886719 4.47680664 C-21.24632156 4.14103372 -27.1217868 3.68579154 -33 3 C-33 2.67 -33 2.34 -33 2 C-22.11 2 -11.22 2 0 2 C0 1.34 0 0.68 0 0 Z " fill="#000412" transform="translate(371,648)"/>
<path d="M0 0 C0 0.99 0 1.98 0 3 C-2.10613875 4.47133073 -4.14421468 5.74812469 -6.375 7 C-11.30304619 9.75803744 -11.30304619 9.75803744 -15 14 C-15.66 14 -16.32 14 -17 14 C-18.34882408 14.63474075 -19.6846659 15.29848848 -21 16 C-21 15.01 -21 14.02 -21 13 C-19.6105957 11.7890625 -19.6105957 11.7890625 -17.67578125 10.625 C-16.97646484 10.19703125 -16.27714844 9.7690625 -15.55664062 9.328125 C-14.81607422 8.88984375 -14.07550781 8.4515625 -13.3125 8 C-12.2306543 7.34257812 -12.2306543 7.34257812 -11.12695312 6.671875 C-9.09084038 5.4371911 -7.04696712 4.21657888 -5 3 C-4.00355469 2.401875 -3.00710938 1.80375 -1.98046875 1.1875 C-1.32691406 0.795625 -0.67335938 0.40375 0 0 Z " fill="#131D31" transform="translate(558,422)"/>
<path d="M0 0 C4.70999292 7.06498939 4.24577235 14.80758825 4 23 C1.25598485 20.25598485 1.30731406 17.44238728 0.875 13.75 C0.70742188 12.44546875 0.53984375 11.1409375 0.3671875 9.796875 C0.04795583 6.4958837 -0.07200533 3.31224511 0 0 Z " fill="#0B1224" transform="translate(817,497)"/>
<path d="M0 0 C9.24 0 18.48 0 28 0 C28.66 2.64 29.32 5.28 30 8 C29.34 8 28.68 8 28 8 C27.01 6.02 26.02 4.04 25 2 C16.75 1.67 8.5 1.34 0 1 C0 0.67 0 0.34 0 0 Z " fill="#00030D" transform="translate(768,417)"/>
<path d="M0 0 C4.12819482 -0.07371776 8.09359634 -0.05365173 12.1875 0.5 C15.20149148 0.89527757 17.9731581 1.09458881 21 1 C20.01 1.66 19.02 2.32 18 3 C18.66 3.66 19.32 4.32 20 5 C13.13963599 4.34034961 6.65556077 2.7637236 0 1 C0 0.67 0 0.34 0 0 Z " fill="#121C31" transform="translate(396,103)"/>
<path d="M0 0 C-2.14760792 6.44282377 -8.68327594 10.16087667 -14 14 C-13.58109745 9.62706609 -10.67920548 7.47464215 -7.5625 4.75 C-7.05912109 4.29109375 -6.55574219 3.8321875 -6.03710938 3.359375 C-2.27280971 0 -2.27280971 0 0 0 Z " fill="#1A253C" transform="translate(536,512)"/>
<path d="M0 0 C1.29700035 3.00119849 0.93380699 4.20184207 -0.109375 7.3828125 C-0.6442982 8.63538018 -1.19161217 9.88271515 -1.75 11.125 C-2.01554687 11.75792969 -2.28109375 12.39085937 -2.5546875 13.04296875 C-4.03581756 16.42943602 -4.85340005 17.9022667 -8 20 C-5.83836487 13.06001352 -3.1063786 6.56882431 0 0 Z " fill="#10182A" transform="translate(387,607)"/>
<path d="M0 0 C3.68069887 1.53643852 5.98775204 3.78150945 8.75 6.625 C9.54921875 7.44226563 10.3484375 8.25953125 11.171875 9.1015625 C12.07679688 10.04128906 12.07679688 10.04128906 13 11 C12.67 11.99 12.34 12.98 12 14 C9.99387601 12.04761147 7.99507567 10.08862178 6 8.125 C5.42765625 7.56941406 4.8553125 7.01382812 4.265625 6.44140625 C2.80549218 4.99865596 1.39850702 3.5025626 0 2 C0 1.34 0 0.68 0 0 Z " fill="#0F182C" transform="translate(687,256)"/>
<path d="M0 0 C-3.74280395 3.74280395 -7.03831524 4.28510752 -12.25 4.625 C-13.32765625 4.69976562 -14.4053125 4.77453125 -15.515625 4.8515625 C-16.33546875 4.90054687 -17.1553125 4.94953125 -18 5 C-13.36723125 -0.21901418 -6.5491165 -0.27287985 0 0 Z " fill="#111B31" transform="translate(706,425)"/>
<path d="M0 0 C3.59513436 0.58712485 5.41558828 1.98438913 8.0625 4.4375 C10.33756394 6.52916147 12.41507709 8.27671806 15 10 C14.67 10.99 14.34 11.98 14 13 C11.66270866 11.02546836 9.33085338 9.04462531 7 7.0625 C6.33226562 6.49853516 5.66453125 5.93457031 4.9765625 5.35351562 C4.34492187 4.81533203 3.71328125 4.27714844 3.0625 3.72265625 C2.47597656 3.22515869 1.88945313 2.72766113 1.28515625 2.21508789 C0.86105469 1.81410889 0.43695312 1.41312988 0 1 C0 0.67 0 0.34 0 0 Z " fill="#10192E" transform="translate(657,229)"/>
<path d="M0 0 C0 0.66 0 1.32 0 2 C-8.06350113 2.12867289 -15.97497656 1.79681084 -24 1 C-24 0.67 -24 0.34 -24 0 C-20.9378174 -0.19533059 -17.87553679 -0.38153284 -14.8125 -0.5625 C-13.51602539 -0.64661133 -13.51602539 -0.64661133 -12.19335938 -0.73242188 C-7.95250921 -0.9761489 -4.14202181 -1.15770796 0 0 Z " fill="#0D1529" transform="translate(333,92)"/>
<path d="M0 0 C1.03253906 0.00676758 1.03253906 0.00676758 2.0859375 0.01367188 C3.76566335 0.02533664 5.44534375 0.04326729 7.125 0.0625 C7.125 0.3925 7.125 0.7225 7.125 1.0625 C3.495 1.3925 -0.135 1.7225 -3.875 2.0625 C-3.875 2.3925 -3.875 2.7225 -3.875 3.0625 C-8.495 3.0625 -13.115 3.0625 -17.875 3.0625 C-11.93409253 0.09204627 -6.54938746 -0.08250197 0 0 Z " fill="#202F4E" transform="translate(314.875,90.9375)"/>
<path d="M0 0 C-1 3 -1 3 -4.0625 4.6875 C-5.031875 5.120625 -6.00125 5.55375 -7 6 C-7 6.66 -7 7.32 -7 8 C-11.455 8.495 -11.455 8.495 -16 9 C-11.97806144 5.49702126 -5.60566856 0 0 0 Z " fill="#151E34" transform="translate(584,408)"/>
<path d="M0 0 C-4.54019609 4.34279626 -10.99004791 5.11265762 -17.0625 5.125 C-18.031875 5.08375 -19.00125 5.0425 -20 5 C-16.9182501 2.94550007 -14.6904243 2.25524191 -11.125 1.375 C-10.09632813 1.11460937 -9.06765625 0.85421875 -8.0078125 0.5859375 C-5.24120939 0.04698884 -2.80715804 -0.11394368 0 0 Z " fill="#0F172C" transform="translate(709,364)"/>
<path d="M0 0 C0.99 0.33 1.98 0.66 3 1 C-0.96 3.97 -4.92 6.94 -9 10 C-9.66 9.67 -10.32 9.34 -11 9 C-7.61791761 5.41897159 -4.30323854 2.43226526 0 0 Z " fill="#141E34" transform="translate(574,481)"/>
<path d="M0 0 C2.62187494 1.04874998 3.79371361 1.64931313 5.25 4.125 C5.4975 4.74375 5.745 5.3625 6 6 C0.97703996 7.13016601 -2.97874074 6.77916092 -8 6 C-8 5.67 -8 5.34 -8 5 C-5.03 4.34 -2.06 3.68 1 3 C0.67 2.01 0.34 1.02 0 0 Z " fill="#0F182B" transform="translate(760,351)"/>
<path d="M0 0 C5.24048417 0.32753026 9.37294164 3.38141608 13 7 C13.734375 9.19921875 13.734375 9.19921875 14 11 C9.19428515 7.87628535 4.42514791 4.65018546 0 1 C0 0.67 0 0.34 0 0 Z " fill="#121B31" transform="translate(642,217)"/>
<path d="M0 0 C-2.4453385 2.96527758 -4.44602347 3.55582214 -8.1875 4.1875 C-9.08855469 4.34605469 -9.98960937 4.50460937 -10.91796875 4.66796875 C-11.94857422 4.83232422 -11.94857422 4.83232422 -13 5 C-9.25316241 0.83684713 -5.67827303 -2.10306409 0 0 Z " fill="#141F37" transform="translate(641,447)"/>
<path d="M0 0 C1.29065057 3.8719517 0.22324098 6.44232601 -0.9375 10.1875 C-1.23043945 11.16879883 -1.23043945 11.16879883 -1.52929688 12.16992188 C-2.01182563 13.78227407 -2.50490205 15.39146289 -3 17 C-3.33 17 -3.66 17 -4 17 C-4.33252584 10.792851 -3.50054525 6.70124316 -1 1 C-0.67 0.67 -0.34 0.34 0 0 Z " fill="#0D1425" transform="translate(439,649)"/>
<path d="M0 0 C-4.07523049 3.42319361 -8.57062751 5.84493367 -13.9375 6.1875 C-14.9584375 6.0946875 -14.9584375 6.0946875 -16 6 C-13.10600531 3.65788337 -10.32844572 2.13137829 -6.875 0.75 C-6.00617187 0.39421875 -5.13734375 0.0384375 -4.2421875 -0.328125 C-2 -1 -2 -1 0 0 Z " fill="#111A2F" transform="translate(626,390)"/>
<path d="M0 0 C0.66 0.66 1.32 1.32 2 2 C-3.36000789 4.25684543 -7.1977825 5.36263859 -13 5 C-10.53698577 2.53698577 -8.72639964 2.23233479 -5.375 1.375 C-4.37210938 1.11460937 -3.36921875 0.85421875 -2.3359375 0.5859375 C-1.56507813 0.39257812 -0.79421875 0.19921875 0 0 Z " fill="#131D34" transform="translate(684,369)"/>
<path d="M0 0 C1 3 1 3 -0.43359375 6.13671875 C-1.09135973 7.3260128 -1.75977815 8.50946371 -2.4375 9.6875 C-2.77587891 10.29400391 -3.11425781 10.90050781 -3.46289062 11.52539062 C-4.29957915 13.0220025 -5.14862831 14.51169189 -6 16 C-6.71484375 14.390625 -6.71484375 14.390625 -7 12 C-5.56640625 8.984375 -5.56640625 8.984375 -3.5625 5.75 C-2.90378906 4.67234375 -2.24507813 3.5946875 -1.56640625 2.484375 C-1.04949219 1.66453125 -0.53257812 0.8446875 0 0 Z " fill="#131C30" transform="translate(405,573)"/>
<path d="M0 0 C0.33 1.32 0.66 2.64 1 4 C-2.9813783 5.3271261 -6.85045227 5.06915913 -11 5 C-11 4.01 -11 3.02 -11 2 C-7.37 2 -3.74 2 0 2 C0 1.34 0 0.68 0 0 Z " fill="#050A19" transform="translate(371,648)"/>
<path d="M0 0 C0.33 0.99 0.66 1.98 1 3 C-1.97 6.3 -4.94 9.6 -8 13 C-8.33 12.01 -8.66 11.02 -9 10 C-6.03 6.7 -3.06 3.4 0 0 Z " fill="#121A2F" transform="translate(450,512)"/>
<path d="M0 0 C4.55105375 0.54179211 8.06386006 1.62000841 12 4 C12.33 4.99 12.66 5.98 13 7 C8.1725201 5.58707905 4.2837641 3.57025846 0 1 C0 0.67 0 0.34 0 0 Z " fill="#121A30" transform="translate(534,150)"/>
<path d="M0 0 C0 0.66 0 1.32 0 2 C-4.96073422 3.32286246 -9.91111512 3.08893197 -15 3 C-10.26004945 -0.15996703 -5.58842581 -0.13305776 0 0 Z " fill="#111A2F" transform="translate(730,360)"/>
<path d="M0 0 C0.66 0 1.32 0 2 0 C0.50829734 4.9723422 -1.60457417 9.41845739 -4 14 C-5.06528748 11.26980214 -5.07998186 10.20701188 -4.00390625 7.421875 C-3.52824219 6.54015625 -3.05257813 5.6584375 -2.5625 4.75 C-2.08941406 3.85796875 -1.61632812 2.9659375 -1.12890625 2.046875 C-0.75636719 1.37140625 -0.38382812 0.6959375 0 0 Z " fill="#0F1728" transform="translate(453,613)"/>
<path d="M0 0 C0.66 0.33 1.32 0.66 2 1 C2 4.58912412 1.33563446 5.10857029 -1 7.6875 C-1.556875 8.31011719 -2.11375 8.93273437 -2.6875 9.57421875 C-3.120625 10.04472656 -3.55375 10.51523437 -4 11 C-4.66 10.34 -5.32 9.68 -6 9 C-5.360625 8.4225 -4.72125 7.845 -4.0625 7.25 C-1.98696254 4.98577732 -1.50568318 3.93296242 -1 1 C-0.67 0.67 -0.34 0.34 0 0 Z " fill="#1C2B4A" transform="translate(537,509)"/>
<path d="M0 0 C0.99 0.33 1.98 0.66 3 1 C0.36 4.3 -2.28 7.6 -5 11 C-5.33 10.01 -5.66 9.02 -6 8 C-4.78515625 5.95703125 -4.78515625 5.95703125 -3.0625 3.8125 C-2.49660156 3.09707031 -1.93070312 2.38164063 -1.34765625 1.64453125 C-0.90292969 1.10183594 -0.45820313 0.55914063 0 0 Z " fill="#121A2D" transform="translate(486,562)"/>
<path d="M0 0 C2.64 0.33 5.28 0.66 8 1 C8 1.66 8 2.32 8 3 C9.45833358 4.62514468 9.45833358 4.62514468 11 6 C7.61121488 6 6.60242783 5.35638802 3.8125 3.5625 C2.73935547 2.88380859 2.73935547 2.88380859 1.64453125 2.19140625 C1.10183594 1.79824219 0.55914063 1.40507812 0 1 C0 0.67 0 0.34 0 0 Z " fill="#101A30" transform="translate(581,175)"/>
<path d="M0 0 C0.33 0.99 0.66 1.98 1 3 C-0.43359375 5.04296875 -0.43359375 5.04296875 -2.4375 7.1875 C-3.09621094 7.90292969 -3.75492187 8.61835937 -4.43359375 9.35546875 C-4.95050781 9.89816406 -5.46742188 10.44085937 -6 11 C-6.33 10.01 -6.66 9.02 -7 8 C-5.56640625 5.95703125 -5.56640625 5.95703125 -3.5625 3.8125 C-2.90378906 3.09707031 -2.24507813 2.38164063 -1.56640625 1.64453125 C-1.04949219 1.10183594 -0.53257812 0.55914063 0 0 Z " fill="#111A2D" transform="translate(439,525)"/>
<path d="M0 0 C1.6045556 0.14148989 3.20863767 0.28835686 4.8125 0.4375 C5.70582031 0.51871094 6.59914063 0.59992188 7.51953125 0.68359375 C10 1 10 1 13 2 C13 2.66 13 3.32 13 4 C8.428721 3.45144652 4.32564205 2.58255197 0 1 C0 0.67 0 0.34 0 0 Z " fill="#10182D" transform="translate(436,113)"/>
<path d="M0 0 C0.33 0 0.66 0 1 0 C0.03644647 10.55808656 0.03644647 10.55808656 -1 15 C-1.33 15 -1.66 15 -2 15 C-2.05429959 13.25034642 -2.09292823 11.50020213 -2.125 9.75 C-2.15980469 8.28820312 -2.15980469 8.28820312 -2.1953125 6.796875 C-1.99862781 3.9803502 -1.44568916 2.39050964 0 0 Z " fill="#0C1322" transform="translate(434,667)"/>
<path d="M0 0 C0.99 0.99 1.98 1.98 3 3 C1.68 4.32 0.36 5.64 -1 7 C-3 6 -3 6 -4 4 C-2.66666667 2.66666667 -1.33333333 1.33333333 0 0 Z " fill="#1E2D4A" transform="translate(579,476)"/>
<path d="M0 0 C-2.87949147 2.23960447 -5.76742026 4.29864224 -9 6 C-9.66 5.67 -10.32 5.34 -11 5 C-7.17906575 1.05170128 -5.52310605 -0.1453449 0 0 Z " fill="#131C32" transform="translate(609,462)"/>
<path d="M0 0 C0.33 0.99 0.66 1.98 1 3 C-4.5 6.125 -4.5 6.125 -9 5 C-6.03 3.35 -3.06 1.7 0 0 Z " fill="#141E34" transform="translate(594,402)"/>
<path d="M0 0 C3.02419525 0.58803797 6.01758453 1.22678118 9 2 C9.33 3.32 9.66 4.64 10 6 C6.51329166 4.8905928 3.22515763 3.73662334 0 2 C0 1.34 0 0.68 0 0 Z " fill="#111C32" transform="translate(558,162)"/>
<path d="M0 0 C0.99 0.33 1.98 0.66 3 1 C0.69 3.31 -1.62 5.62 -4 8 C-4.33 7.01 -4.66 6.02 -5 5 C-3.35 3.35 -1.7 1.7 0 0 Z " fill="#10192F" transform="translate(517,528)"/>
<path d="M0 0 C-1.4638611 4.39158329 -3.97831338 4.87947433 -8 7 C-8 6.01 -8 5.02 -8 4 C-2.74285714 0 -2.74285714 0 0 0 Z " fill="#131C30" transform="translate(535,438)"/>
<path d="M0 0 C3.36591866 1.44253657 5.51047079 3.33264727 8 6 C7.67 6.66 7.34 7.32 7 8 C5.8274869 7.04882866 4.66212985 6.08882991 3.5 5.125 C2.8503125 4.59132812 2.200625 4.05765625 1.53125 3.5078125 C1.0259375 3.01023438 0.520625 2.51265625 0 2 C0 1.34 0 0.68 0 0 Z " fill="#0F182D" transform="translate(677,246)"/>
<path d="M0 0 C2.21736634 1.10868317 4.03617993 2.49440461 6 4 C5.67 4.66 5.34 5.32 5 6 C2.36 4.68 -0.28 3.36 -3 2 C-2.01 1.34 -1.02 0.68 0 0 Z " fill="#111A30" transform="translate(526,144)"/>
<path d="M0 0 C0 0.66 0 1.32 0 2 C0.99 2.33 1.98 2.66 3 3 C-0.3 3 -3.6 3 -7 3 C-7.33 2.34 -7.66 1.68 -8 1 C-2.25 0 -2.25 0 0 0 Z " fill="#101A32" transform="translate(301,710)"/>
<path d="M0 0 C0.33 0.66 0.66 1.32 1 2 C1.66 2 2.32 2 3 2 C3.33 4.97 3.66 7.94 4 11 C1.6870518 8.6870518 1.50419025 7.52095125 0.875 4.375 C0.70742188 3.55773437 0.53984375 2.74046875 0.3671875 1.8984375 C0.24601563 1.27195312 0.12484375 0.64546875 0 0 Z " fill="#0E1526" transform="translate(798,428)"/>
<path d="M0 0 C-1.65 1.98 -3.3 3.96 -5 6 C-6 3 -6 3 -6 0 C-2.25 -1.125 -2.25 -1.125 0 0 Z " fill="#111B30" transform="translate(505,544)"/>
<path d="M0 0 C0.66 0 1.32 0 2 0 C0.75122171 3.74633486 -1.06047445 5.41041797 -4 8 C-4.99 8 -5.98 8 -7 8 C-5.88200014 6.66079162 -4.75538103 5.32877444 -3.625 4 C-2.68527344 2.88625 -2.68527344 2.88625 -1.7265625 1.75 C-1.15679688 1.1725 -0.58703125 0.595 0 0 Z " fill="#0D162B" transform="translate(534,512)"/>
<path d="M0 0 C1.32 0.33 2.64 0.66 4 1 C0.535 3.97 0.535 3.97 -3 7 C-3.66 6.67 -4.32 6.34 -5 6 C-3.35 4.02 -1.7 2.04 0 0 Z " fill="#101A30" transform="translate(558,492)"/>
<path d="M0 0 C0.33 0.99 0.66 1.98 1 3 C-0.9375 5.6875 -0.9375 5.6875 -3 8 C-3.99 7.67 -4.98 7.34 -6 7 C-4.02 4.69 -2.04 2.38 0 0 Z " fill="#111B30" transform="translate(458,503)"/>
<path d="M0 0 C1.5 1 1.5 1 3 3 C3.27345479 5.71846235 3.13491285 8.25677199 3 11 C0.43383368 7.15075052 0.44902324 4.5650696 0 0 Z " fill="#080E1F" transform="translate(810,466)"/>
<path d="M0 0 C1.32 0 2.64 0 4 0 C4.66 2.64 5.32 5.28 6 8 C5.34 8 4.68 8 4 8 C2.66666667 5.33333333 1.33333333 2.66666667 0 0 Z " fill="#0D1426" transform="translate(792,417)"/>
<path d="M0 0 C0.66 0.33 1.32 0.66 2 1 C-0.75 3.0625 -0.75 3.0625 -4 5 C-6.203125 4.62109375 -6.203125 4.62109375 -8 4 C-6.71349294 3.30289269 -5.42059335 2.61757124 -4.125 1.9375 C-3.40570312 1.55464844 -2.68640625 1.17179687 -1.9453125 0.77734375 C-1.30335938 0.52082031 -0.66140625 0.26429688 0 0 Z " fill="#0F182D" transform="translate(605,397)"/>
<path d="M0 0 C2.88437779 1.29299694 4.87219421 2.65941363 7 5 C6.67 5.99 6.34 6.98 6 8 C4.9970458 6.85675161 3.99770973 5.71032809 3 4.5625 C2.443125 3.92441406 1.88625 3.28632813 1.3125 2.62890625 C0 1 0 1 0 0 Z " fill="#0E1629" transform="translate(710,281)"/>
<path d="M0 0 C2.62187494 1.04874998 3.79371361 1.64931313 5.25 4.125 C5.4975 4.74375 5.745 5.3625 6 6 C3 6 3 6 1.3125 4.6875 C0 3 0 3 0 0 Z " fill="#162238" transform="translate(672,240)"/>
<path d="M0 0 C3.68754757 0.49831724 5.60490662 1.10067643 8 4 C7.01 4.495 7.01 4.495 6 5 C3.98079663 3.69593116 1.98075027 2.36176581 0 1 C0 0.67 0 0.34 0 0 Z " fill="#0F182F" transform="translate(569,168)"/>
<path d="M0 0 C2.97 0 5.94 0 9 0 C9 0.33 9 0.66 9 1 C6.03 1 3.06 1 0 1 C0 0.67 0 0.34 0 0 Z " fill="#273653" transform="translate(287,88)"/>
<path d="M0 0 C2.64 0 5.28 0 8 0 C8 0.33 8 0.66 8 1 C5.36 1 2.72 1 0 1 C0 0.67 0 0.34 0 0 Z " fill="#293654" transform="translate(256,88)"/>
<path d="M0 0 C2.64 0 5.28 0 8 0 C8 0.33 8 0.66 8 1 C5.36 1 2.72 1 0 1 C0 0.67 0 0.34 0 0 Z " fill="#1E2945" transform="translate(200,88)"/>
<path d="M0 0 C2.97 0.495 2.97 0.495 6 1 C4.125 1.625 4.125 1.625 2 2 C1.34 1.34 0.68 0.68 0 0 Z " fill="#2A3A59" transform="translate(271,653)"/>
<path d="M0 0 C1.98 0 3.96 0 6 0 C5.67 0.66 5.34 1.32 5 2 C3.35 1.67 1.7 1.34 0 1 C0 0.67 0 0.34 0 0 Z " fill="#2B3959" transform="translate(223,653)"/>
<path d="M0 0 C1.98 0 3.96 0 6 0 C6 0.33 6 0.66 6 1 C4.02 1 2.04 1 0 1 C0 0.67 0 0.34 0 0 Z " fill="#283756" transform="translate(752,359)"/>
<path d="M0 0 C1.32 0.33 2.64 0.66 4 1 C3.01 1.495 3.01 1.495 2 2 C1.34 1.34 0.68 0.68 0 0 Z " fill="#2A395A" transform="translate(347,654)"/>
<path d="M0 0 C1.98 0.99 1.98 0.99 4 2 C2.68 2 1.36 2 0 2 C0 1.34 0 0.68 0 0 Z " fill="#2B3B5A" transform="translate(289,653)"/>
<path d="M0 0 C0.66 0.33 1.32 0.66 2 1 C1.34 1.66 0.68 2.32 0 3 C0 2.01 0 1.02 0 0 Z " fill="#283556" transform="translate(369,653)"/>
<path d="M0 0 C0.99 0 1.98 0 3 0 C3 0.66 3 1.32 3 2 C2.01 1.67 1.02 1.34 0 1 C0 0.67 0 0.34 0 0 Z " fill="#253352" transform="translate(205,653)"/>
<path d="M0 0 C0.33 0.66 0.66 1.32 1 2 C-0.32 1.67 -1.64 1.34 -3 1 C-2.01 0.67 -1.02 0.34 0 0 Z " fill="#273755" transform="translate(421,104)"/>
<path d="M0 0 C1.65 0 3.3 0 5 0 C5 0.33 5 0.66 5 1 C3.35 1 1.7 1 0 1 C0 0.67 0 0.34 0 0 Z " fill="#283755" transform="translate(278,88)"/>
<path d="M0 0 C1.65 0 3.3 0 5 0 C5 0.33 5 0.66 5 1 C3.35 1 1.7 1 0 1 C0 0.67 0 0.34 0 0 Z " fill="#23324E" transform="translate(214,88)"/>
<path d="M0 0 C0.99 0.33 1.98 0.66 3 1 C2.01 1.33 1.02 1.66 0 2 C0 1.34 0 0.68 0 0 Z " fill="#293857" transform="translate(583,472)"/>
<path d="M0 0 C0.33 0.66 0.66 1.32 1 2 C0.01 1.67 -0.98 1.34 -2 1 C-1.34 0.67 -0.68 0.34 0 0 Z " fill="#293858" transform="translate(527,446)"/>
<path d="M0 0 C0.66 0 1.32 0 2 0 C2 0.66 2 1.32 2 2 C1.34 2 0.68 2 0 2 C0 1.34 0 0.68 0 0 Z " fill="#253453" transform="translate(446,112)"/>
<path d="M0 0 C4 1 4 1 4 1 Z " fill="#283857" transform="translate(304,88)"/>
<path d="M0 0 C4 1 4 1 4 1 Z " fill="#273454" transform="translate(273,88)"/>
<path d="M0 0 C4 1 4 1 4 1 Z " fill="#2A3857" transform="translate(265,88)"/>
<path d="" fill="#263553" transform="translate(0,0)"/>
<path d="" fill="#293959" transform="translate(0,0)"/>
<path d="M0 0 C3 1 3 1 3 1 Z " fill="#2A3A59" transform="translate(354,654)"/>
<path d="M0 0 C3 1 3 1 3 1 Z " fill="#2A3A5B" transform="translate(314,654)"/>
<path d="M0 0 C0.33 0.66 0.66 1.32 1 2 C0.34 1.67 -0.32 1.34 -1 1 C-0.67 0.67 -0.34 0.34 0 0 Z " fill="#2C3A5C" transform="translate(324,653)"/>
<path d="M0 0 C0.33 0.66 0.66 1.32 1 2 C0.34 1.67 -0.32 1.34 -1 1 C-0.67 0.67 -0.34 0.34 0 0 Z " fill="#2B3A5A" transform="translate(284,653)"/>
<path d="M0 0 C0.33 0.66 0.66 1.32 1 2 C0.34 1.67 -0.32 1.34 -1 1 C-0.67 0.67 -0.34 0.34 0 0 Z " fill="#2A3A5B" transform="translate(263,653)"/>
<path d="M0 0 C0.33 0.66 0.66 1.32 1 2 C0.34 1.67 -0.32 1.34 -1 1 C-0.67 0.67 -0.34 0.34 0 0 Z " fill="#2A3A59" transform="translate(545,500)"/>
<path d="" fill="#263451" transform="translate(0,0)"/>
<path d="M0 0 C3 1 3 1 3 1 Z " fill="#283858" transform="translate(668,432)"/>
<path d="M0 0 C0.66 0 1.32 0 2 0 C1.67 0.66 1.34 1.32 1 2 C0.67 1.34 0.34 0.68 0 0 Z " fill="#293959" transform="translate(736,416)"/>
<path d="M0 0 C3 1 3 1 3 1 Z " fill="#2B3A5B" transform="translate(593,406)"/>
<path d="M0 0 C3 1 3 1 3 1 Z " fill="#23314E" transform="translate(613,192)"/>
<path d="M0 0 C3 1 3 1 3 1 Z " fill="#233350" transform="translate(509,136)"/>
<path d="M0 0 C0.66 0 1.32 0 2 0 C1.67 0.66 1.34 1.32 1 2 C0.67 1.34 0.34 0.68 0 0 Z " fill="#243453" transform="translate(470,120)"/>
<path d="M0 0 C0.33 0.66 0.66 1.32 1 2 C0.34 1.67 -0.32 1.34 -1 1 C-0.67 0.67 -0.34 0.34 0 0 Z " fill="#263453" transform="translate(454,114)"/>
<path d="M0 0 C3 1 3 1 3 1 Z " fill="#283755" transform="translate(240,88)"/>
<path d="" fill="#212E46" transform="translate(0,0)"/>
<path d="" fill="#1E2A46" transform="translate(0,0)"/>
<path d="" fill="#1C263D" transform="translate(0,0)"/>
<path d="" fill="#263553" transform="translate(0,0)"/>
<path d="" fill="#263757" transform="translate(0,0)"/>
<path d="M0 0 C2 1 2 1 2 1 Z " fill="#23304C" transform="translate(201,709)"/>
<path d="" fill="#2A3B5C" transform="translate(0,0)"/>
<path d="" fill="#2B3A5B" transform="translate(0,0)"/>
<path d="M0 0 C2 1 2 1 2 1 Z " fill="#29395A" transform="translate(302,654)"/>
<path d="M0 0 C2 1 2 1 2 1 Z " fill="#283959" transform="translate(299,654)"/>
<path d="" fill="#2C3A5A" transform="translate(0,0)"/>
<path d="M0 0 C2 1 2 1 2 1 Z " fill="#2A395B" transform="translate(259,654)"/>
<path d="" fill="#29385A" transform="translate(0,0)"/>
<path d="M0 0 C2 1 2 1 2 1 Z " fill="#2A395B" transform="translate(233,654)"/>
<path d="M0 0 C2 1 2 1 2 1 Z " fill="#2C3B5B" transform="translate(257,653)"/>
<path d="" fill="#273859" transform="translate(0,0)"/>
<path d="" fill="#293958" transform="translate(0,0)"/>
<path d="" fill="#293959" transform="translate(0,0)"/>
<path d="M0 0 C2 1 2 1 2 1 Z " fill="#273857" transform="translate(430,541)"/>
<path d="M0 0 C2 1 2 1 2 1 Z " fill="#273758" transform="translate(446,521)"/>
<path d="M0 0 C2 1 2 1 2 1 Z " fill="#283758" transform="translate(520,520)"/>
<path d="M0 0 C2 1 2 1 2 1 Z " fill="#293A5A" transform="translate(559,489)"/>
<path d="M0 0 C2 1 2 1 2 1 Z " fill="#2A3958" transform="translate(478,487)"/>
<path d="" fill="#243350" transform="translate(0,0)"/>
<path d="M0 0 C2 1 2 1 2 1 Z " fill="#293A5B" transform="translate(581,474)"/>
<path d="M0 0 C2 1 2 1 2 1 Z " fill="#283758" transform="translate(537,439)"/>
<path d="M0 0 C2 1 2 1 2 1 Z " fill="#283A58" transform="translate(731,417)"/>
<path d="M0 0 C2 1 2 1 2 1 Z " fill="#2C3A5A" transform="translate(628,391)"/>
<path d="M0 0 C2 1 2 1 2 1 Z " fill="#2A3A5A" transform="translate(658,380)"/>
<path d="M0 0 C2 1 2 1 2 1 Z " fill="#2C3B5B" transform="translate(708,367)"/>
<path d="M0 0 C2 1 2 1 2 1 Z " fill="#2A3B5D" transform="translate(712,366)"/>
<path d="" fill="#283653" transform="translate(0,0)"/>
<path d="M0 0 C2 1 2 1 2 1 Z " fill="#24314E" transform="translate(701,264)"/>
<path d="" fill="#243150" transform="translate(0,0)"/>
<path d="M0 0 C2 1 2 1 2 1 Z " fill="#243450" transform="translate(574,168)"/>
<path d="M0 0 C2 1 2 1 2 1 Z " fill="#283553" transform="translate(500,132)"/>
<path d="M0 0 C2 1 2 1 2 1 Z " fill="#263354" transform="translate(473,122)"/>
<path d="M0 0 C2 1 2 1 2 1 Z " fill="#233152" transform="translate(467,120)"/>
<path d="M0 0 C2 1 2 1 2 1 Z " fill="#253555" transform="translate(443,112)"/>
<path d="M0 0 C2 1 2 1 2 1 Z " fill="#263654" transform="translate(310,89)"/>
<path d="M0 0 C2 1 2 1 2 1 Z " fill="#273856" transform="translate(299,88)"/>
<path d="M0 0 C2 1 2 1 2 1 Z " fill="#273654" transform="translate(246,88)"/>
<path d="" fill="#1D273D" transform="translate(0,0)"/>
<path d="" fill="#1A273B" transform="translate(0,0)"/>
<path d="" fill="#1F2943" transform="translate(0,0)"/>
<path d="" fill="#263351" transform="translate(0,0)"/>
<path d="" fill="#263454" transform="translate(0,0)"/>
<path d="" fill="#273554" transform="translate(0,0)"/>
<path d="" fill="#253353" transform="translate(0,0)"/>
<path d="" fill="#263554" transform="translate(0,0)"/>
<path d="" fill="#283856" transform="translate(0,0)"/>
<path d="" fill="#253554" transform="translate(0,0)"/>
<path d="" fill="#283554" transform="translate(0,0)"/>
<path d="" fill="#273756" transform="translate(0,0)"/>
<path d="" fill="#283858" transform="translate(0,0)"/>
<path d="" fill="#263656" transform="translate(0,0)"/>
<path d="" fill="#293B5B" transform="translate(0,0)"/>
<path d="" fill="#293A5C" transform="translate(0,0)"/>
<path d="" fill="#2B3A5A" transform="translate(0,0)"/>
<path d="" fill="#2B395A" transform="translate(0,0)"/>
<path d="" fill="#273658" transform="translate(0,0)"/>
<path d="" fill="#283756" transform="translate(0,0)"/>
<path d="" fill="#293755" transform="translate(0,0)"/>
<path d="" fill="#283858" transform="translate(0,0)"/>
<path d="" fill="#22304F" transform="translate(0,0)"/>
<path d="" fill="#283557" transform="translate(0,0)"/>
<path d="" fill="#2D3B58" transform="translate(0,0)"/>
<path d="" fill="#2A3B5C" transform="translate(0,0)"/>
<path d="" fill="#2B3B5D" transform="translate(0,0)"/>
<path d="" fill="#2C3C5D" transform="translate(0,0)"/>
<path d="" fill="#293B5D" transform="translate(0,0)"/>
<path d="" fill="#2B395B" transform="translate(0,0)"/>
<path d="" fill="#2B3B5C" transform="translate(0,0)"/>
<path d="" fill="#243453" transform="translate(0,0)"/>
<path d="" fill="#2A3958" transform="translate(0,0)"/>
<path d="" fill="#2A3C5B" transform="translate(0,0)"/>
<path d="" fill="#293B5B" transform="translate(0,0)"/>
<path d="" fill="#293A5A" transform="translate(0,0)"/>
<path d="" fill="#2A3C5B" transform="translate(0,0)"/>
<path d="" fill="#2B3A5B" transform="translate(0,0)"/>
<path d="" fill="#2B3B5C" transform="translate(0,0)"/>
<path d="" fill="#2B3A5B" transform="translate(0,0)"/>
<path d="" fill="#2A3A5C" transform="translate(0,0)"/>
<path d="" fill="#2C3A5C" transform="translate(0,0)"/>
<path d="" fill="#2B395C" transform="translate(0,0)"/>
<path d="" fill="#2B3A5D" transform="translate(0,0)"/>
<path d="" fill="#293A5A" transform="translate(0,0)"/>
<path d="" fill="#283859" transform="translate(0,0)"/>
<path d="" fill="#29395C" transform="translate(0,0)"/>
<path d="" fill="#2A3C5B" transform="translate(0,0)"/>
<path d="" fill="#2A395B" transform="translate(0,0)"/>
<path d="" fill="#293A5A" transform="translate(0,0)"/>
<path d="" fill="#283757" transform="translate(0,0)"/>
<path d="" fill="#283655" transform="translate(0,0)"/>
<path d="" fill="#283755" transform="translate(0,0)"/>
<path d="" fill="#2B375C" transform="translate(0,0)"/>
<path d="" fill="#2C3A59" transform="translate(0,0)"/>
<path d="" fill="#2D3B59" transform="translate(0,0)"/>
<path d="" fill="#2C3A5C" transform="translate(0,0)"/>
<path d="" fill="#2C395C" transform="translate(0,0)"/>
<path d="" fill="#2D3C5C" transform="translate(0,0)"/>
<path d="" fill="#2D3A5B" transform="translate(0,0)"/>
<path d="" fill="#2B3A5B" transform="translate(0,0)"/>
<path d="" fill="#2C3859" transform="translate(0,0)"/>
<path d="" fill="#2C3A5B" transform="translate(0,0)"/>
<path d="" fill="#2B3A58" transform="translate(0,0)"/>
<path d="" fill="#293758" transform="translate(0,0)"/>
<path d="" fill="#2B3856" transform="translate(0,0)"/>
<path d="" fill="#2A3858" transform="translate(0,0)"/>
<path d="" fill="#29385A" transform="translate(0,0)"/>
<path d="" fill="#23314F" transform="translate(0,0)"/>
<path d="" fill="#293B58" transform="translate(0,0)"/>
<path d="" fill="#283657" transform="translate(0,0)"/>
<path d="" fill="#2B3758" transform="translate(0,0)"/>
<path d="" fill="#2A3959" transform="translate(0,0)"/>
<path d="" fill="#28395A" transform="translate(0,0)"/>
<path d="" fill="#293758" transform="translate(0,0)"/>
<path d="" fill="#293758" transform="translate(0,0)"/>
<path d="" fill="#293858" transform="translate(0,0)"/>
<path d="" fill="#253252" transform="translate(0,0)"/>
<path d="" fill="#273654" transform="translate(0,0)"/>
<path d="" fill="#2A3B5A" transform="translate(0,0)"/>
<path d="" fill="#293959" transform="translate(0,0)"/>
<path d="" fill="#293657" transform="translate(0,0)"/>
<path d="" fill="#273557" transform="translate(0,0)"/>
<path d="" fill="#293857" transform="translate(0,0)"/>
<path d="" fill="#2A3857" transform="translate(0,0)"/>
<path d="" fill="#283959" transform="translate(0,0)"/>
<path d="" fill="#2A385A" transform="translate(0,0)"/>
<path d="" fill="#283957" transform="translate(0,0)"/>
<path d="" fill="#273757" transform="translate(0,0)"/>
<path d="" fill="#273857" transform="translate(0,0)"/>
<path d="" fill="#273758" transform="translate(0,0)"/>
<path d="" fill="#222F4E" transform="translate(0,0)"/>
<path d="" fill="#273658" transform="translate(0,0)"/>
<path d="" fill="#2A3859" transform="translate(0,0)"/>
<path d="" fill="#2A3859" transform="translate(0,0)"/>
<path d="" fill="#273553" transform="translate(0,0)"/>
<path d="" fill="#2A3A5C" transform="translate(0,0)"/>
<path d="" fill="#293958" transform="translate(0,0)"/>
<path d="" fill="#2A3D5E" transform="translate(0,0)"/>
<path d="" fill="#293856" transform="translate(0,0)"/>
<path d="" fill="#273658" transform="translate(0,0)"/>
<path d="" fill="#2C3B5C" transform="translate(0,0)"/>
<path d="" fill="#2A3A5A" transform="translate(0,0)"/>
<path d="" fill="#293858" transform="translate(0,0)"/>
<path d="" fill="#2C3C5B" transform="translate(0,0)"/>
<path d="" fill="#263251" transform="translate(0,0)"/>
<path d="" fill="#283656" transform="translate(0,0)"/>
<path d="" fill="#293858" transform="translate(0,0)"/>
<path d="" fill="#2B3859" transform="translate(0,0)"/>
<path d="" fill="#283A5B" transform="translate(0,0)"/>
<path d="" fill="#253655" transform="translate(0,0)"/>
<path d="" fill="#2A3756" transform="translate(0,0)"/>
<path d="" fill="#29395B" transform="translate(0,0)"/>
<path d="" fill="#2C395B" transform="translate(0,0)"/>
<path d="" fill="#2B395B" transform="translate(0,0)"/>
<path d="" fill="#2B3A59" transform="translate(0,0)"/>
<path d="" fill="#293A5C" transform="translate(0,0)"/>
<path d="" fill="#273858" transform="translate(0,0)"/>
<path d="" fill="#29395C" transform="translate(0,0)"/>
<path d="" fill="#2C3C5A" transform="translate(0,0)"/>
<path d="" fill="#283A5B" transform="translate(0,0)"/>
<path d="" fill="#283759" transform="translate(0,0)"/>
<path d="" fill="#253658" transform="translate(0,0)"/>
<path d="" fill="#28385A" transform="translate(0,0)"/>
<path d="" fill="#283556" transform="translate(0,0)"/>
<path d="" fill="#2B3B5D" transform="translate(0,0)"/>
<path d="" fill="#283858" transform="translate(0,0)"/>
<path d="" fill="#2B3A5B" transform="translate(0,0)"/>
<path d="" fill="#2A3A5C" transform="translate(0,0)"/>
<path d="" fill="#273553" transform="translate(0,0)"/>
<path d="" fill="#24324E" transform="translate(0,0)"/>
<path d="" fill="#25344E" transform="translate(0,0)"/>
<path d="" fill="#273658" transform="translate(0,0)"/>
<path d="" fill="#283B5B" transform="translate(0,0)"/>
<path d="" fill="#293A5B" transform="translate(0,0)"/>
<path d="" fill="#263755" transform="translate(0,0)"/>
<path d="" fill="#283859" transform="translate(0,0)"/>
<path d="" fill="#293858" transform="translate(0,0)"/>
<path d="" fill="#24324E" transform="translate(0,0)"/>
<path d="" fill="#28385A" transform="translate(0,0)"/>
<path d="" fill="#26375B" transform="translate(0,0)"/>
<path d="" fill="#253250" transform="translate(0,0)"/>
<path d="" fill="#293B5C" transform="translate(0,0)"/>
<path d="" fill="#2C3B5C" transform="translate(0,0)"/>
<path d="" fill="#283756" transform="translate(0,0)"/>
<path d="" fill="#293B5B" transform="translate(0,0)"/>
<path d="" fill="#2A3B5A" transform="translate(0,0)"/>
<path d="" fill="#2A3A5E" transform="translate(0,0)"/>
<path d="" fill="#283A59" transform="translate(0,0)"/>
<path d="" fill="#2B3B59" transform="translate(0,0)"/>
<path d="" fill="#2A385C" transform="translate(0,0)"/>
<path d="" fill="#293858" transform="translate(0,0)"/>
<path d="" fill="#29395B" transform="translate(0,0)"/>
<path d="" fill="#2A385A" transform="translate(0,0)"/>
<path d="" fill="#243048" transform="translate(0,0)"/>
<path d="" fill="#2C3B5A" transform="translate(0,0)"/>
<path d="" fill="#293759" transform="translate(0,0)"/>
<path d="" fill="#2A3A5B" transform="translate(0,0)"/>
<path d="" fill="#293958" transform="translate(0,0)"/>
<path d="" fill="#2A3A5C" transform="translate(0,0)"/>
<path d="" fill="#2A3C58" transform="translate(0,0)"/>
<path d="" fill="#2B3C5A" transform="translate(0,0)"/>
<path d="" fill="#293A5A" transform="translate(0,0)"/>
<path d="" fill="#2A3C5E" transform="translate(0,0)"/>
<path d="" fill="#2A3A5D" transform="translate(0,0)"/>
<path d="" fill="#293C5C" transform="translate(0,0)"/>
<path d="" fill="#2B395B" transform="translate(0,0)"/>
<path d="" fill="#2B3C5C" transform="translate(0,0)"/>
<path d="" fill="#273757" transform="translate(0,0)"/>
<path d="" fill="#2A3B5D" transform="translate(0,0)"/>
<path d="" fill="#2B3B5B" transform="translate(0,0)"/>
<path d="" fill="#2B3B5E" transform="translate(0,0)"/>
<path d="" fill="#2A3A5A" transform="translate(0,0)"/>
<path d="" fill="#2B3B5C" transform="translate(0,0)"/>
<path d="" fill="#2C3B5B" transform="translate(0,0)"/>
<path d="" fill="#29385A" transform="translate(0,0)"/>
<path d="" fill="#2B3C5C" transform="translate(0,0)"/>
<path d="" fill="#283C5C" transform="translate(0,0)"/>
<path d="" fill="#263559" transform="translate(0,0)"/>
<path d="" fill="#293959" transform="translate(0,0)"/>
<path d="" fill="#21304D" transform="translate(0,0)"/>
<path d="" fill="#232E4B" transform="translate(0,0)"/>
<path d="" fill="#25324F" transform="translate(0,0)"/>
<path d="" fill="#243450" transform="translate(0,0)"/>
<path d="" fill="#273350" transform="translate(0,0)"/>
<path d="" fill="#22314E" transform="translate(0,0)"/>
<path d="" fill="#23304F" transform="translate(0,0)"/>
<path d="" fill="#22304B" transform="translate(0,0)"/>
<path d="" fill="#25334F" transform="translate(0,0)"/>
<path d="" fill="#25314E" transform="translate(0,0)"/>
<path d="" fill="#263252" transform="translate(0,0)"/>
<path d="" fill="#253450" transform="translate(0,0)"/>
<path d="" fill="#28304F" transform="translate(0,0)"/>
<path d="" fill="#22324F" transform="translate(0,0)"/>
<path d="" fill="#253150" transform="translate(0,0)"/>
<path d="" fill="#263450" transform="translate(0,0)"/>
<path d="" fill="#212F4B" transform="translate(0,0)"/>
<path d="" fill="#25344F" transform="translate(0,0)"/>
<path d="" fill="#212F4C" transform="translate(0,0)"/>
<path d="" fill="#23324F" transform="translate(0,0)"/>
<path d="" fill="#27324F" transform="translate(0,0)"/>
<path d="" fill="#23314D" transform="translate(0,0)"/>
<path d="" fill="#233551" transform="translate(0,0)"/>
<path d="" fill="#273550" transform="translate(0,0)"/>
<path d="" fill="#233350" transform="translate(0,0)"/>
<path d="" fill="#243352" transform="translate(0,0)"/>
<path d="" fill="#263451" transform="translate(0,0)"/>
<path d="" fill="#273656" transform="translate(0,0)"/>
<path d="" fill="#263453" transform="translate(0,0)"/>
<path d="" fill="#263555" transform="translate(0,0)"/>
<path d="" fill="#2B3B58" transform="translate(0,0)"/>
<path d="" fill="#263755" transform="translate(0,0)"/>
<path d="" fill="#263556" transform="translate(0,0)"/>
<path d="" fill="#273552" transform="translate(0,0)"/>
<path d="" fill="#283759" transform="translate(0,0)"/>
<path d="" fill="#293756" transform="translate(0,0)"/>
<path d="" fill="#283957" transform="translate(0,0)"/>
<path d="" fill="#293957" transform="translate(0,0)"/>
<path d="" fill="#273857" transform="translate(0,0)"/>
<path d="" fill="#2A3A57" transform="translate(0,0)"/>
<path d="" fill="#283855" transform="translate(0,0)"/>
<path d="" fill="#293756" transform="translate(0,0)"/>
<path d="" fill="#283857" transform="translate(0,0)"/>
<path d="" fill="#283758" transform="translate(0,0)"/>
<path d="" fill="#273553" transform="translate(0,0)"/>
<path d="" fill="#273653" transform="translate(0,0)"/>
<path d="" fill="#243350" transform="translate(0,0)"/>
<path d="" fill="#263452" transform="translate(0,0)"/>
</svg>
