<?xml version="1.0" encoding="UTF-8"?>
<svg xmlns="http://www.w3.org/2000/svg" viewBox="0 0 1024 1024">

<path fill="#1C2F4A" d="
M201 90
L320 90
C500 90,650 180,764 355
C690 366,632 385,577 411
C518 440,470 478,427 542
C404 575,387 611,371 651
L201 651
Z"/>

<path fill="#1C2F4A" d="
M824 822
L428 822
L428 705
C428 677,434 649,445 627
C470 581,499 546,534 512
C575 480,612 458,652 440
C696 425,744 418,794 417
C814 479,824 535,824 822
Z"/>

<path fill="#1C2F4A" d="
M202 711
L363 711
L363 822
L202 822
Z"/>

</svg>
